<svg width="377" height="143" viewBox="0 0 377 143" fill="none" xmlns="http://www.w3.org/2000/svg">
<path d="M262.455 64.6648L347.468 70.1459L299.077 121.689L262.455 64.6648Z" fill="#B6BAC7"/>
<path d="M346.154 71.6801L278.947 89.1215" stroke="black" stroke-opacity="0.24"/>
<path d="M279.15 86.0876L295.559 98.8749L272.858 103.907L279.15 86.0876Z" fill="#B6BAC7"/>
<line y1="-0.5" x2="15.807" y2="-0.5" transform="matrix(-0.433821 0.900999 -0.97314 -0.230213 282.287 87.861)" stroke="black" stroke-opacity="0.24"/>
<path d="M48.4794 66L50.4364 71.1824H56.7695L51.6459 74.3853L53.603 79.5676L48.4794 76.3647L43.3559 79.5676L45.3129 74.3853L40.1893 71.1824H46.5224L48.4794 66Z" fill="#6B6B7D"/>
<path d="M221.733 75.286L223.544 79.8581H229.401L224.662 82.6838L226.473 87.2559L221.733 84.4302L216.994 87.2559L218.804 82.6838L214.065 79.8581H219.923L221.733 75.286Z" fill="#6B6B7D"/>
<path d="M252.937 94.4019L254.747 98.974L260.605 98.974L255.866 101.8L257.676 106.372L252.937 103.546L248.198 106.372L250.008 101.8L245.269 98.974L251.127 98.974L252.937 94.4019Z" fill="#6B6B7D"/>
<path d="M8.71671 66L10.6737 71.1824H17.0068L11.8832 74.3853L13.8403 79.5676L8.71671 76.3647L3.59316 79.5676L5.55018 74.3853L0.426626 71.1824H6.75968L8.71671 66Z" fill="#6B6B7D"/>
<path d="M188.022 66L189.979 71.1824H196.312L191.188 74.3853L193.145 79.5676L188.022 76.3647L182.898 79.5676L184.855 74.3853L179.732 71.1824H186.065L188.022 66Z" fill="#6B6B7D"/>
<path d="M152.259 83L154.216 88.1824H160.549L155.426 91.3853L157.383 96.5676L152.259 93.3647L147.136 96.5676L149.093 91.3853L143.969 88.1824H150.302L152.259 83Z" fill="#6B6B7D"/>
<path d="M117.392 101L119.349 106.182H125.682L120.559 109.385L122.516 114.568L117.392 111.365L112.269 114.568L114.226 109.385L109.102 106.182H115.435L117.392 101Z" fill="#6B6B7D"/>
<path d="M80.7191 89L82.6762 94.1824H89.0092L83.8857 97.3853L85.8427 102.568L80.7191 99.3647L75.5956 102.568L77.5526 97.3853L72.4291 94.1824H78.7621L80.7191 89Z" fill="#6B6B7D"/>
<path d="M143.832 33.584C144.415 33.584 144.833 33.7107 145.086 33.964C145.365 34.2173 145.504 34.5467 145.504 34.952C145.504 35.6107 145.301 36.1933 144.896 36.7C144.516 37.2067 143.908 37.4727 143.072 37.498C141.045 37.5487 139.247 37.3967 137.676 37.042C135.877 40.8167 133.699 43.958 131.14 46.466C128.607 48.9487 126.061 50.19 123.502 50.19C120.867 50.19 118.904 48.6573 117.612 45.592C116.32 42.5267 115.674 38.3847 115.674 33.166C115.674 28.7073 115.991 24.7047 116.624 21.158C116.852 19.8407 117.169 18.954 117.574 18.498C118.005 18.0167 118.727 17.776 119.74 17.776C121.412 17.776 122.248 18.498 122.248 19.942C122.248 20.094 122.223 20.3727 122.172 20.778C121.412 25.338 121.032 29.4673 121.032 33.166C121.032 37.042 121.349 39.9933 121.982 42.02C122.641 44.0213 123.616 45.022 124.908 45.022C126.225 45.022 127.657 44.11 129.202 42.286C130.747 40.462 132.166 38.1693 133.458 35.408C131.913 34.4453 130.747 33.204 129.962 31.684C129.177 30.1387 128.784 28.3653 128.784 26.364C128.784 24.3627 129.088 22.678 129.696 21.31C130.329 19.9167 131.178 18.878 132.242 18.194C133.331 17.51 134.535 17.168 135.852 17.168C137.473 17.168 138.753 17.7507 139.69 18.916C140.653 20.0813 141.134 21.6773 141.134 23.704C141.134 26.6173 140.501 29.7967 139.234 33.242C140.577 33.47 142.109 33.584 143.832 33.584ZM132.622 26.098C132.622 28.5807 133.42 30.4173 135.016 31.608C136.004 28.7707 136.498 26.4273 136.498 24.578C136.498 23.514 136.359 22.7413 136.08 22.26C135.801 21.7533 135.421 21.5 134.94 21.5C134.256 21.5 133.699 21.9053 133.268 22.716C132.837 23.5013 132.622 24.6287 132.622 26.098ZM161.186 38.334C161.516 38.334 161.769 38.4987 161.946 38.828C162.124 39.1573 162.212 39.5753 162.212 40.082C162.212 41.298 161.845 42.02 161.11 42.248C159.59 42.78 157.918 43.084 156.094 43.16C155.613 45.288 154.663 46.998 153.244 48.29C151.826 49.5567 150.217 50.19 148.418 50.19C146.898 50.19 145.594 49.8227 144.504 49.088C143.44 48.3533 142.63 47.378 142.072 46.162C141.515 44.946 141.236 43.6287 141.236 42.21C141.236 40.2847 141.604 38.5747 142.338 37.08C143.073 35.56 144.086 34.382 145.378 33.546C146.67 32.6847 148.102 32.254 149.672 32.254C151.598 32.254 153.143 32.9253 154.308 34.268C155.499 35.5853 156.196 37.2193 156.398 39.17C157.589 39.094 159.008 38.8407 160.654 38.41C160.857 38.3593 161.034 38.334 161.186 38.334ZM148.722 46.162C149.533 46.162 150.23 45.8327 150.812 45.174C151.42 44.5153 151.826 43.5653 152.028 42.324C151.243 41.792 150.635 41.0953 150.204 40.234C149.799 39.3727 149.596 38.4607 149.596 37.498C149.596 37.0927 149.634 36.6873 149.71 36.282H149.52C148.507 36.282 147.658 36.776 146.974 37.764C146.316 38.7267 145.986 40.0947 145.986 41.868C145.986 43.2613 146.252 44.3253 146.784 45.06C147.342 45.7947 147.988 46.162 148.722 46.162ZM172.555 42.666C172.884 42.666 173.138 42.818 173.315 43.122C173.518 43.426 173.619 43.844 173.619 44.376C173.619 45.288 173.404 46.0733 172.973 46.732C172.264 47.8213 171.326 48.67 170.161 49.278C169.021 49.886 167.653 50.19 166.057 50.19C163.625 50.19 161.738 49.468 160.395 48.024C159.052 46.5547 158.381 44.5787 158.381 42.096C158.381 40.348 158.748 38.7267 159.483 37.232C160.218 35.712 161.231 34.5087 162.523 33.622C163.84 32.7353 165.322 32.292 166.969 32.292C168.438 32.292 169.616 32.7353 170.503 33.622C171.39 34.4833 171.833 35.6613 171.833 37.156C171.833 38.904 171.2 40.4113 169.933 41.678C168.692 42.9193 166.564 43.9073 163.549 44.642C164.157 45.8073 165.183 46.39 166.627 46.39C167.666 46.39 168.514 46.1493 169.173 45.668C169.857 45.1867 170.642 44.376 171.529 43.236C171.833 42.856 172.175 42.666 172.555 42.666ZM166.323 36.016C165.386 36.016 164.588 36.5607 163.929 37.65C163.296 38.7393 162.979 40.0567 162.979 41.602V41.678C164.474 41.3233 165.652 40.7913 166.513 40.082C167.374 39.3727 167.805 38.5493 167.805 37.612C167.805 37.1307 167.666 36.7507 167.387 36.472C167.134 36.168 166.779 36.016 166.323 36.016ZM204.999 36.89C205.581 36.89 206.025 37.0673 206.329 37.422C206.633 37.7767 206.785 38.2073 206.785 38.714C206.785 39.3473 206.569 39.93 206.139 40.462C205.733 40.9687 205.176 41.222 204.467 41.222H198.235L197.399 48.176C197.297 48.8347 197.006 49.3413 196.525 49.696C196.069 50.0507 195.537 50.228 194.929 50.228C194.346 50.228 193.865 50.0507 193.485 49.696C193.13 49.3413 192.991 48.8347 193.067 48.176L193.903 41.222H187.747C187.164 41.222 186.721 41.0447 186.417 40.69C186.113 40.31 185.961 39.8667 185.961 39.36C185.961 38.7267 186.163 38.1567 186.569 37.65C186.999 37.1433 187.569 36.89 188.279 36.89H194.473L195.309 29.936C195.385 29.3027 195.651 28.8087 196.107 28.454C196.563 28.0993 197.082 27.922 197.665 27.922C198.247 27.922 198.741 28.0993 199.147 28.454C199.552 28.8087 199.717 29.3027 199.641 29.936L198.805 36.89H204.999Z" fill="#6F6EA3"/>
</svg>
